<?xml version="1.0" encoding="utf-8"?>
<!-- Generator: Adobe Illustrator 24.1.0, SVG Export Plug-In . SVG Version: 6.00 Build 0)  -->
<svg version="1.1" id="Layer_1" xmlns="http://www.w3.org/2000/svg" xmlns:xlink="http://www.w3.org/1999/xlink" x="0px" y="0px"
	 viewBox="0 0 230 36.4" style="enable-background:new 0 0 230 36.4;" xml:space="preserve">
<path d="M35.1,25c-0.7,0-1.2,0.5-1.2,1.2c0,0.4,0.2,0.7,0.5,0.9c-0.8,1.3-2.6,3.7-4.5,3.6c-2.2-0.4-3.2-5.7-3.6-8.1
	c0.7-0.2,1.2-0.8,1.2-1.6c0-0.9-0.8-1.7-1.7-1.7c-1,0-1.7,0.8-1.7,1.7c0,0.8,0.5,1.4,1.2,1.6c-0.4,2.4-1.3,7.7-3.6,8.1
	c-1.8,0.1-3.6-2.3-4.5-3.6c0.3-0.2,0.5-0.6,0.5-0.9c0-0.7-0.5-1.2-1.2-1.2c-0.7,0-1.2,0.5-1.2,1.2c0,0.7,0.5,1.2,1.2,1.2
	c0.1,0,0.1,0,0.2,0c1.6,3.6,1.5,6.3,1.3,7.5c-0.4,0.1-0.6,0.4-0.6,0.8c0,0.4,0.5,0.8,0.9,0.7c1.9-0.2,4.7-0.3,7.5-0.3
	c2.9,0,5.7,0.1,7.5,0.3c0,0,0.1,0,0.1,0c0.4,0,0.8-0.3,0.8-0.7c0-0.4-0.2-0.8-0.6-0.8c-0.2-1.2-0.2-4,1.3-7.5c0.1,0,0.1,0,0.2,0
	c0.7,0,1.2-0.5,1.2-1.2C36.3,25.5,35.8,25,35.1,25z"/>
<path d="M53.1,5.1c-2,0.8-2.9,1.7-3.2,2.5c-1.3-0.8-2.9-0.4-3.3,0.7C46.1,10,47.4,11,47.4,11c0.1-0.4,0.5-1.1,1.5-0.8
	c0.9,0.3,0.2,1.3,0,1.6l-0.1,0.1c-2.1,2.1-3.8-1-3.8-1c-3.3,2.1-3.8-1.1-3.8-1.1s-0.1-1.5,0.8-1.5c1,0,1.2,0.8,1.1,1.2
	c0,0,1.5-0.6,1.5-2.3c0-1.2-1.4-2.1-2.7-1.7c0.3-1.1,0-2.5-1.6-4.3c-1.6,1.8-1.9,3.3-1.6,4.3c-1.3-0.3-2.7,0.5-2.7,1.7
	c0,1.7,1.5,2.3,1.5,2.3c-0.1-0.4,0.1-1.2,1.1-1.2c1,0,0.8,1.5,0.8,1.5S39,13,35.8,10.9c0,0-1.7,3.1-3.8,1l-0.1-0.1
	c-0.2-0.3-0.9-1.3,0-1.6c1-0.3,1.5,0.4,1.5,0.8c0,0,1.4-1.1,0.8-2.7c-0.4-1.1-2.1-1.5-3.3-0.7c-0.3-0.8-1.1-1.7-3.2-2.5
	c2.1,3.4,2.8,9,3,10c-0.2,0.2-0.3,0.4-0.2,0.6c0,0.4,0.4,0.7,0.8,0.7c0,0,0.1,0,0.1,0c2.3-0.3,5.6-0.4,9-0.4s6.7,0.1,9,0.4
	c0.5,0,0.8-0.3,0.9-0.7c0-0.3-0.1-0.5-0.2-0.6C50.3,14.1,51,8.5,53.1,5.1z"/>
<path d="M11.2,2.9c0.8,0,1.5-0.7,1.5-1.5C12.7,0.7,12,0,11.2,0c-0.8,0-1.5,0.7-1.5,1.5C9.7,2.3,10.4,2.9,11.2,2.9z"/>
<path d="M20.1,16.4c0.2,0,0.4-0.1,0.5-0.3c0.1-0.2,0.2-0.4,0-0.7c0-0.1-0.2-0.7,0-1.9c0.1-0.1,0.1-0.2,0.2-0.3
	c0.3-0.5,0.5-0.9,0.8-1.5c0.2-0.5,0.4-1.1,0.5-1.7c0-0.2,0-0.3,0.1-0.4c0-0.1,0-0.2,0-0.2V9.3c0-0.3,0-0.6,0-0.9
	c0-0.3-0.1-0.6-0.2-0.9c-0.1-0.3-0.3-0.7-0.5-0.9C21.3,6.3,21,6,20.7,5.8c-0.3-0.2-0.7-0.3-1-0.4c-0.7-0.2-1.3-0.2-1.9-0.1
	c-0.3,0-0.5,0.1-0.7,0.1C17,5.2,16.9,5,16.7,4.8c-0.3-0.3-0.6-0.6-0.9-0.8c-0.4-0.2-0.7-0.4-1.1-0.5c-0.7-0.2-1.5-0.2-2.3-0.1
	c-0.4,0.1-0.7,0.2-1.1,0.4c-0.1,0-0.1,0.1-0.2,0.1c-0.1,0-0.1-0.1-0.2-0.1c-0.4-0.2-0.7-0.3-1.1-0.4C9.1,3.3,8.4,3.3,7.6,3.5
	C7.2,3.6,6.9,3.8,6.5,4C6.2,4.2,5.8,4.5,5.6,4.8C5.4,5,5.3,5.2,5.2,5.4C4.9,5.4,4.7,5.3,4.5,5.3C3.9,5.2,3.3,5.2,2.6,5.4
	c-0.3,0.1-0.7,0.2-1,0.4C1.3,6,1,6.3,0.7,6.5C0.5,6.8,0.4,7.2,0.2,7.5C0.1,7.8,0,8.1,0,8.4C0,8.7,0,9,0,9.3v0.2c0,0.1,0,0.2,0,0.2
	c0,0.2,0,0.3,0.1,0.4c0.1,0.6,0.3,1.1,0.5,1.7c0.2,0.5,0.5,1,0.8,1.5c0.1,0.1,0.1,0.2,0.2,0.3c0.3,1.2,0.1,1.8,0,1.9
	c-0.1,0.2-0.1,0.4,0,0.7c0.1,0.2,0.4,0.3,0.6,0.3c2.2-0.2,5.5-0.3,8.8-0.3C14.6,16.1,17.8,16.2,20.1,16.4
	C20.1,16.4,20.1,16.4,20.1,16.4z M18.1,7.2c0.4,0,0.8,0,1.1,0.1c0.3,0.1,0.5,0.3,0.6,0.4C19.9,8,20,8.3,20,8.6c0,0.2,0,0.4,0,0.6
	v0.1c0,0,0,0.1,0,0.1c0,0.1,0,0.2-0.1,0.3c-0.1,0.4-0.3,0.8-0.5,1.1c-0.2,0.4-0.4,0.8-0.7,1.1c-0.1,0.2-0.3,0.3-0.4,0.5
	c-0.1,0.1-0.1,0.1-0.2,0.2c-0.5,0-1-0.1-1.5-0.1c0-0.1,0.1-0.1,0.1-0.2c0.2-0.6,0.4-1.1,0.5-1.8c0.2-0.6,0.3-1.2,0.3-1.8l0-0.3
	c0-0.1,0-0.2,0-0.3c0-0.2,0-0.3,0-0.5c0-0.2,0-0.4,0-0.6C17.8,7.3,17.9,7.2,18.1,7.2z M14.1,5.6c0.4,0.1,0.6,0.3,0.8,0.6
	C15,6.3,15,6.5,15.1,6.6c0.1,0.2,0.1,0.3,0.1,0.6c0,0.2,0,0.4,0,0.7l0,0.3c0,0.1,0,0.1,0,0.2l0,0.2C15.1,9,15,9.5,14.9,10
	c-0.1,0.5-0.3,1-0.5,1.4c-0.1,0.1-0.1,0.3-0.2,0.3c-0.1,0.1-0.1,0.3-0.2,0.3c-0.1,0.1-0.1,0.2-0.2,0.3c-0.5,0-0.9,0-1.3,0V5.6
	c0.1,0,0.2-0.1,0.4-0.1C13.3,5.5,13.7,5.5,14.1,5.6z M7.2,7.2c0-0.2,0.1-0.4,0.1-0.6c0.1-0.2,0.1-0.3,0.2-0.4C7.7,5.9,8,5.8,8.3,5.6
	c0.4-0.1,0.8-0.1,1.2-0.1c0.1,0,0.2,0.1,0.4,0.1v6.9c-0.5,0-0.9,0-1.3,0c-0.1-0.1-0.1-0.2-0.2-0.3c-0.1-0.1-0.1-0.2-0.2-0.3
	c-0.1-0.1-0.1-0.3-0.2-0.3c-0.2-0.5-0.4-1-0.5-1.4c-0.1-0.5-0.3-1-0.3-1.4l0-0.2c0-0.1,0-0.1,0-0.2l0-0.4C7.1,7.6,7.1,7.4,7.2,7.2z
	 M2.4,8.6c0-0.4,0.1-0.7,0.2-0.8c0.1-0.2,0.3-0.3,0.6-0.4c0.3-0.1,0.7-0.1,1.1-0.1c0.1,0,0.3,0,0.4,0c0,0.2,0,0.4,0,0.6
	c0,0.2,0,0.3,0,0.5c0,0.1,0,0.2,0,0.3l0,0.3c0.1,0.6,0.2,1.3,0.3,1.8c0.2,0.6,0.3,1.2,0.5,1.8c0,0.1,0.1,0.1,0.1,0.2
	c-0.5,0-1,0.1-1.5,0.1c-0.1-0.1-0.1-0.1-0.2-0.2c-0.1-0.2-0.3-0.3-0.4-0.5c-0.3-0.3-0.5-0.7-0.7-1.1c-0.2-0.4-0.4-0.8-0.5-1.1
	c0-0.1,0-0.2-0.1-0.3c0,0,0-0.1,0-0.1V9.3C2.4,9,2.4,8.8,2.4,8.6z"/>
<path d="M69.6,17.5l5.1-6.4h5.1l-6.3,7.3l6.9,8.1H75l-5.4-6.7v6.7h-4.2V11.1h4.2V17.5z"/>
<path d="M81.2,12c0-0.3,0.1-0.6,0.2-0.8c0.1-0.3,0.3-0.5,0.5-0.7c0.2-0.2,0.4-0.3,0.7-0.4C82.7,10,83,10,83.3,10
	c0.3,0,0.6,0.1,0.8,0.2c0.3,0.1,0.5,0.3,0.7,0.4c0.2,0.2,0.4,0.4,0.5,0.7c0.1,0.3,0.2,0.5,0.2,0.8c0,0.3-0.1,0.6-0.2,0.8
	c-0.1,0.3-0.3,0.5-0.5,0.7c-0.2,0.2-0.4,0.3-0.7,0.4c-0.3,0.1-0.5,0.2-0.8,0.2c-0.3,0-0.6-0.1-0.8-0.2c-0.3-0.1-0.5-0.3-0.7-0.4
	c-0.2-0.2-0.4-0.4-0.5-0.7C81.2,12.6,81.2,12.3,81.2,12z M85.3,16.1v10.6h-3.8V16.1H85.3z"/>
<path d="M87.1,16.1h3.8v1.3c0.5-0.6,1.1-1,1.6-1.3c0.5-0.2,1.2-0.3,1.9-0.3c0.8,0,1.4,0.1,2,0.3c0.5,0.3,1,0.6,1.4,1
	c0.3,0.3,0.5,0.8,0.6,1.2c0.1,0.4,0.2,0.9,0.2,1.5v6.7h-3.8v-5.3c0-0.5,0-0.9-0.1-1.3c-0.1-0.3-0.2-0.6-0.4-0.8
	c-0.2-0.2-0.4-0.3-0.6-0.3c-0.2-0.1-0.5-0.1-0.7-0.1c-0.6,0-1.2,0.2-1.5,0.6c-0.4,0.4-0.5,0.9-0.5,1.6v5.6H87L87.1,16.1L87.1,16.1z"
	/>
<path d="M112.4,16.1v9.8c0,0.6,0,1.1-0.1,1.6c-0.1,0.5-0.2,0.9-0.3,1.2c-0.2,0.4-0.4,0.9-0.8,1.3c-0.4,0.4-0.8,0.7-1.3,1
	c-0.5,0.3-1.1,0.5-1.7,0.7c-0.6,0.2-1.3,0.3-2.1,0.3c-0.8,0-1.6-0.1-2.3-0.3c-0.7-0.2-1.3-0.5-1.8-0.8c-0.5-0.4-1-0.8-1.3-1.3
	c-0.3-0.5-0.5-1-0.7-1.6h4.3c0.3,0.7,0.9,1,1.8,1c0.8,0,1.4-0.2,1.8-0.7c0.4-0.4,0.6-1,0.6-1.8v-1c-0.3,0.3-0.5,0.5-0.8,0.7
	c-0.3,0.2-0.5,0.3-0.8,0.4c-0.3,0.1-0.5,0.2-0.8,0.3c-0.3,0.1-0.6,0.1-1,0.1c-0.8,0-1.5-0.1-2.1-0.4c-0.6-0.3-1.2-0.6-1.7-1.1
	c-0.5-0.5-0.8-1-1.1-1.7c-0.3-0.7-0.4-1.4-0.4-2.2c0-0.8,0.1-1.6,0.4-2.3c0.3-0.7,0.7-1.3,1.2-1.8c0.5-0.5,1.1-0.9,1.7-1.2
	c0.7-0.3,1.4-0.4,2.2-0.4c1.3,0,2.4,0.5,3.2,1.4v-1.1L112.4,16.1L112.4,16.1z M103.8,21.3c0,0.3,0.1,0.7,0.2,1
	c0.1,0.3,0.3,0.6,0.5,0.8c0.2,0.2,0.5,0.4,0.8,0.5c0.3,0.1,0.6,0.2,1,0.2c0.3,0,0.6-0.1,1-0.2c0.3-0.1,0.5-0.3,0.8-0.5
	c0.2-0.2,0.4-0.5,0.5-0.8c0.1-0.3,0.2-0.6,0.2-0.9c0-0.3-0.1-0.7-0.2-0.9c-0.1-0.3-0.3-0.5-0.5-0.8c-0.2-0.2-0.5-0.4-0.8-0.5
	c-0.3-0.1-0.6-0.2-0.9-0.2c-0.3,0-0.6,0.1-1,0.2c-0.3,0.1-0.5,0.3-0.8,0.5c-0.2,0.2-0.4,0.5-0.5,0.8C103.9,20.7,103.8,21,103.8,21.3
	z"/>
<path d="M128.4,17.5l5.1-6.4h5.1l-6.3,7.3l6.9,8.1h-5.4l-5.4-6.7v6.7h-4.2V11.1h4.2V17.5L128.4,17.5z"/>
<path d="M140,12c0-0.3,0.1-0.6,0.2-0.8c0.1-0.3,0.3-0.5,0.5-0.7c0.2-0.2,0.4-0.3,0.7-0.4c0.3-0.1,0.5-0.2,0.8-0.2
	c0.3,0,0.6,0.1,0.8,0.2c0.3,0.1,0.5,0.3,0.7,0.4c0.2,0.2,0.4,0.4,0.5,0.7c0.1,0.3,0.2,0.5,0.2,0.8c0,0.3-0.1,0.6-0.2,0.8
	c-0.1,0.3-0.3,0.5-0.5,0.7c-0.2,0.2-0.4,0.3-0.7,0.4c-0.3,0.1-0.5,0.2-0.8,0.2c-0.3,0-0.6-0.1-0.8-0.2c-0.3-0.1-0.5-0.3-0.7-0.4
	c-0.2-0.2-0.4-0.4-0.5-0.7C140,12.6,140,12.3,140,12z M144.1,16.1v10.6h-3.8V16.1H144.1z"/>
<path d="M145.8,16.1h3.8v1.3c0.5-0.6,1.1-1,1.6-1.3c0.5-0.2,1.2-0.3,1.9-0.3c0.8,0,1.4,0.1,2,0.3c0.5,0.3,1,0.6,1.4,1
	c0.3,0.3,0.5,0.8,0.6,1.2c0.1,0.4,0.2,0.9,0.2,1.5v6.7h-3.8v-5.3c0-0.5,0-0.9-0.1-1.3c-0.1-0.3-0.2-0.6-0.4-0.8
	c-0.2-0.2-0.4-0.3-0.6-0.3c-0.2-0.1-0.5-0.1-0.7-0.1c-0.6,0-1.2,0.2-1.5,0.6c-0.4,0.4-0.5,0.9-0.5,1.6v5.6h-3.8L145.8,16.1
	L145.8,16.1z"/>
<path d="M171.2,16.1v9.8c0,0.6,0,1.1-0.1,1.6c-0.1,0.5-0.2,0.9-0.3,1.2c-0.2,0.4-0.4,0.9-0.8,1.3c-0.4,0.4-0.8,0.7-1.3,1
	c-0.5,0.3-1.1,0.5-1.7,0.7c-0.6,0.2-1.3,0.3-2.1,0.3c-0.8,0-1.6-0.1-2.3-0.3c-0.7-0.2-1.3-0.5-1.8-0.8c-0.5-0.4-1-0.8-1.3-1.3
	c-0.3-0.5-0.5-1-0.7-1.6h4.3c0.3,0.7,0.9,1,1.8,1c0.8,0,1.4-0.2,1.8-0.7c0.4-0.4,0.6-1,0.6-1.8v-1c-0.3,0.3-0.5,0.5-0.8,0.7
	c-0.3,0.2-0.5,0.3-0.8,0.4c-0.3,0.1-0.5,0.2-0.8,0.3c-0.3,0.1-0.6,0.1-1,0.1c-0.8,0-1.5-0.1-2.1-0.4c-0.6-0.3-1.2-0.6-1.7-1.1
	c-0.5-0.5-0.8-1-1.1-1.7c-0.3-0.7-0.4-1.4-0.4-2.2c0-0.8,0.1-1.6,0.4-2.3c0.3-0.7,0.7-1.3,1.2-1.8c0.5-0.5,1.1-0.9,1.7-1.2
	c0.7-0.3,1.4-0.4,2.2-0.4c1.3,0,2.4,0.5,3.2,1.4v-1.1L171.2,16.1L171.2,16.1z M162.6,21.3c0,0.3,0.1,0.7,0.2,1
	c0.1,0.3,0.3,0.6,0.5,0.8c0.2,0.2,0.5,0.4,0.8,0.5c0.3,0.1,0.6,0.2,1,0.2c0.3,0,0.6-0.1,1-0.2c0.3-0.1,0.5-0.3,0.8-0.5
	c0.2-0.2,0.4-0.5,0.5-0.8c0.1-0.3,0.2-0.6,0.2-0.9c0-0.3-0.1-0.7-0.2-0.9c-0.1-0.3-0.3-0.5-0.5-0.8c-0.2-0.2-0.5-0.4-0.8-0.5
	c-0.3-0.1-0.6-0.2-0.9-0.2s-0.6,0.1-1,0.2c-0.3,0.1-0.5,0.3-0.8,0.5c-0.2,0.2-0.4,0.5-0.5,0.8C162.7,20.7,162.6,21,162.6,21.3z"/>
<path d="M187.2,17.5l5.1-6.4h5.1l-6.3,7.3l6.9,8.1h-5.4l-5.4-6.7v6.7H183V11.1h4.2V17.5z"/>
<path d="M198.8,12c0-0.3,0.1-0.6,0.2-0.8c0.1-0.3,0.3-0.5,0.5-0.7c0.2-0.2,0.4-0.3,0.7-0.4c0.3-0.1,0.5-0.2,0.8-0.2
	c0.3,0,0.6,0.1,0.8,0.2c0.3,0.1,0.5,0.3,0.7,0.4c0.2,0.2,0.4,0.4,0.5,0.7c0.1,0.3,0.2,0.5,0.2,0.8c0,0.3-0.1,0.6-0.2,0.8
	c-0.1,0.3-0.3,0.5-0.5,0.7c-0.2,0.2-0.4,0.3-0.7,0.4c-0.3,0.1-0.5,0.2-0.8,0.2c-0.3,0-0.6-0.1-0.8-0.2c-0.3-0.1-0.5-0.3-0.7-0.4
	c-0.2-0.2-0.4-0.4-0.5-0.7C198.8,12.6,198.8,12.3,198.8,12z M202.8,16.1v10.6H199V16.1H202.8z"/>
<path d="M204.6,16.1h3.8v1.3c0.5-0.6,1.1-1,1.6-1.3c0.5-0.2,1.2-0.3,1.9-0.3c0.8,0,1.4,0.1,2,0.3c0.5,0.3,1,0.6,1.4,1
	c0.3,0.3,0.5,0.8,0.6,1.2c0.1,0.4,0.2,0.9,0.2,1.5v6.7h-3.8v-5.3c0-0.5,0-0.9-0.1-1.3c-0.1-0.3-0.2-0.6-0.4-0.8
	c-0.2-0.2-0.4-0.3-0.6-0.3c-0.2-0.1-0.5-0.1-0.7-0.1c-0.6,0-1.2,0.2-1.5,0.6c-0.4,0.4-0.5,0.9-0.5,1.6v5.6h-3.8L204.6,16.1
	L204.6,16.1z"/>
<path d="M230,16.1v9.8c0,0.6,0,1.1-0.1,1.6s-0.2,0.9-0.3,1.2c-0.2,0.4-0.4,0.9-0.8,1.3c-0.4,0.4-0.8,0.7-1.3,1
	c-0.5,0.3-1.1,0.5-1.7,0.7c-0.6,0.2-1.3,0.3-2.1,0.3c-0.8,0-1.6-0.1-2.3-0.3c-0.7-0.2-1.3-0.5-1.8-0.8c-0.5-0.4-1-0.8-1.3-1.3
	c-0.3-0.5-0.5-1-0.7-1.6h4.3c0.3,0.7,0.9,1,1.8,1c0.8,0,1.4-0.2,1.8-0.7c0.4-0.4,0.6-1,0.6-1.8v-1c-0.3,0.3-0.5,0.5-0.8,0.7
	c-0.3,0.2-0.5,0.3-0.8,0.4c-0.3,0.1-0.5,0.2-0.8,0.3c-0.3,0.1-0.6,0.1-1,0.1c-0.8,0-1.5-0.1-2.1-0.4c-0.6-0.3-1.2-0.6-1.7-1.1
	c-0.5-0.5-0.8-1-1.1-1.7c-0.3-0.7-0.4-1.4-0.4-2.2c0-0.8,0.1-1.6,0.4-2.3c0.3-0.7,0.7-1.3,1.2-1.8c0.5-0.5,1.1-0.9,1.7-1.2
	c0.7-0.3,1.4-0.4,2.2-0.4c1.3,0,2.4,0.5,3.2,1.4v-1.1L230,16.1L230,16.1z M221.4,21.3c0,0.3,0.1,0.7,0.2,1c0.1,0.3,0.3,0.6,0.5,0.8
	c0.2,0.2,0.5,0.4,0.8,0.5c0.3,0.1,0.6,0.2,1,0.2c0.3,0,0.6-0.1,1-0.2c0.3-0.1,0.5-0.3,0.8-0.5c0.2-0.2,0.4-0.5,0.5-0.8
	c0.1-0.3,0.2-0.6,0.2-0.9c0-0.3-0.1-0.7-0.2-0.9c-0.1-0.3-0.3-0.5-0.5-0.8c-0.2-0.2-0.5-0.4-0.8-0.5c-0.3-0.1-0.6-0.2-0.9-0.2
	c-0.3,0-0.6,0.1-1,0.2c-0.3,0.1-0.5,0.3-0.8,0.5c-0.2,0.2-0.4,0.5-0.5,0.8C221.5,20.7,221.4,21,221.4,21.3z"/>
</svg>
